<svg xmlns="http://www.w3.org/2000/svg" xmlns:xlink="http://www.w3.org/1999/xlink" width="2000" zoomAndPan="magnify" viewBox="0 0 1500 1499.999933" height="2000" preserveAspectRatio="xMidYMid meet" version="1.0"><defs><g/><clipPath id="40935a103a"><path d="M 185.722656 218.816406 L 264.3125 218.816406 L 264.3125 440.136719 L 185.722656 440.136719 Z M 185.722656 218.816406 " clip-rule="nonzero"/></clipPath><clipPath id="c9a59ef596"><path d="M 0.722656 0.816406 L 79.3125 0.816406 L 79.3125 222.136719 L 0.722656 222.136719 Z M 0.722656 0.816406 " clip-rule="nonzero"/></clipPath><clipPath id="7bd2b88686"><rect x="0" width="80" y="0" height="223"/></clipPath><clipPath id="bcf27aea78"><path d="M 5.429688 293.734375 L 309.777344 293.734375 L 309.777344 372.324219 L 5.429688 372.324219 Z M 5.429688 293.734375 " clip-rule="nonzero"/></clipPath><clipPath id="b97d52449e"><path d="M 0.429688 0.734375 L 304.777344 0.734375 L 304.777344 79.324219 L 0.429688 79.324219 Z M 0.429688 0.734375 " clip-rule="nonzero"/></clipPath><clipPath id="6b3ada1737"><rect x="0" width="305" y="0" height="80"/></clipPath><clipPath id="e16305871d"><path d="M 202.320312 165.558594 L 264.394531 165.558594 L 264.394531 200.558594 L 202.320312 200.558594 Z M 202.320312 165.558594 " clip-rule="nonzero"/></clipPath><clipPath id="81c24fd8c5"><path d="M 233.316406 165.558594 L 264.3125 200.558594 L 202.320312 200.558594 Z M 233.316406 165.558594 " clip-rule="nonzero"/></clipPath><clipPath id="1085689509"><path d="M 0.320312 0.558594 L 62.394531 0.558594 L 62.394531 35.558594 L 0.320312 35.558594 Z M 0.320312 0.558594 " clip-rule="nonzero"/></clipPath><clipPath id="11f7384a2e"><path d="M 31.316406 0.558594 L 62.3125 35.558594 L 0.320312 35.558594 Z M 31.316406 0.558594 " clip-rule="nonzero"/></clipPath><clipPath id="a7b13d4b00"><rect x="0" width="63" y="0" height="36"/></clipPath><clipPath id="973b71a2e8"><path d="M 185.722656 184.054688 L 248.480469 184.054688 L 248.480469 219.058594 L 185.722656 219.058594 Z M 185.722656 184.054688 " clip-rule="nonzero"/></clipPath><clipPath id="c524a31c14"><path d="M 217.078125 184.054688 L 248.4375 219.058594 L 185.722656 219.058594 Z M 217.078125 184.054688 " clip-rule="nonzero"/></clipPath><clipPath id="3fb7162fc4"><path d="M 0.722656 0.0546875 L 63.480469 0.0546875 L 63.480469 35.058594 L 0.722656 35.058594 Z M 0.722656 0.0546875 " clip-rule="nonzero"/></clipPath><clipPath id="2c91e9a87f"><path d="M 32.078125 0.0546875 L 63.4375 35.058594 L 0.722656 35.058594 Z M 32.078125 0.0546875 " clip-rule="nonzero"/></clipPath><clipPath id="4cfc70a74d"><rect x="0" width="64" y="0" height="36"/></clipPath><clipPath id="9809c484f8"><path d="M 217.078125 200.316406 L 264.3125 200.316406 L 264.3125 421.636719 L 217.078125 421.636719 Z M 217.078125 200.316406 " clip-rule="nonzero"/></clipPath><clipPath id="986729d19d"><path d="M 0.078125 0.316406 L 47.3125 0.316406 L 47.3125 221.636719 L 0.078125 221.636719 Z M 0.078125 0.316406 " clip-rule="nonzero"/></clipPath><clipPath id="432e2555ef"><rect x="0" width="48" y="0" height="222"/></clipPath><clipPath id="276a3fb854"><path d="M 34 86 L 232 86 L 232 299 L 34 299 Z M 34 86 " clip-rule="nonzero"/></clipPath><clipPath id="d22cb8a289"><path d="M 91.75 298.324219 L 34.066406 248.582031 L 173.890625 86.425781 L 231.574219 136.164062 Z M 91.75 298.324219 " clip-rule="nonzero"/></clipPath><clipPath id="0d0b4985a7"><path d="M 0.0390625 0.359375 L 197.800781 0.359375 L 197.800781 212.519531 L 0.0390625 212.519531 Z M 0.0390625 0.359375 " clip-rule="nonzero"/></clipPath><clipPath id="25059574f4"><path d="M 57.75 212.324219 L 0.0664062 162.582031 L 139.890625 0.425781 L 197.574219 50.164062 Z M 57.75 212.324219 " clip-rule="nonzero"/></clipPath><clipPath id="d9c1d1a4a9"><rect x="0" width="198" y="0" height="213"/></clipPath><clipPath id="5d7879e708"><path d="M 140 53 L 263 53 L 263 168 L 140 168 Z M 140 53 " clip-rule="nonzero"/></clipPath><clipPath id="1b14364d57"><path d="M 192.984375 1.121094 L 315.496094 106.609375 L 262.644531 167.984375 L 140.136719 62.492188 Z M 192.984375 1.121094 " clip-rule="nonzero"/></clipPath><clipPath id="40f24ecc03"><path d="M 254.160156 53.796875 L 262.488281 167.847656 L 140.136719 62.492188 Z M 254.160156 53.796875 " clip-rule="nonzero"/></clipPath><clipPath id="d951233d98"><path d="M 0.121094 0.71875 L 122.519531 0.71875 L 122.519531 114.960938 L 0.121094 114.960938 Z M 0.121094 0.71875 " clip-rule="nonzero"/></clipPath><clipPath id="a3e53824e7"><path d="M 52.984375 -51.878906 L 175.496094 53.609375 L 122.644531 114.984375 L 0.136719 9.492188 Z M 52.984375 -51.878906 " clip-rule="nonzero"/></clipPath><clipPath id="0ecc4c4fe2"><path d="M 114.160156 0.796875 L 122.488281 114.847656 L 0.136719 9.492188 Z M 114.160156 0.796875 " clip-rule="nonzero"/></clipPath><clipPath id="64c63ac805"><rect x="0" width="123" y="0" height="115"/></clipPath><clipPath id="2092e06980"><path d="M 4 228 L 105 228 L 105 283 L 4 283 Z M 4 228 " clip-rule="nonzero"/></clipPath><clipPath id="13e20993db"><path d="M 0.96875 232.5 L 101.285156 225.296875 L 104.890625 275.554688 L 4.574219 282.757812 Z M 0.96875 232.5 " clip-rule="nonzero"/></clipPath><clipPath id="862fe9062d"><path d="M 51.058594 228.902344 L 104.761719 275.5625 L 4.574219 282.757812 Z M 51.058594 228.902344 " clip-rule="nonzero"/></clipPath><clipPath id="73252256eb"><path d="M 0.519531 0.679688 L 100.839844 0.679688 L 100.839844 54.917969 L 0.519531 54.917969 Z M 0.519531 0.679688 " clip-rule="nonzero"/></clipPath><clipPath id="b5c1404e9c"><path d="M -3.03125 4.5 L 97.285156 -2.703125 L 100.890625 47.554688 L 0.574219 54.757812 Z M -3.03125 4.5 " clip-rule="nonzero"/></clipPath><clipPath id="136f860385"><path d="M 47.058594 0.902344 L 100.761719 47.5625 L 0.574219 54.757812 Z M 47.058594 0.902344 " clip-rule="nonzero"/></clipPath><clipPath id="c0665d7d74"><rect x="0" width="101" y="0" height="55"/></clipPath><clipPath id="d66aecc053"><path d="M 5 252 L 97 252 L 97 304 L 5 304 Z M 5 252 " clip-rule="nonzero"/></clipPath><clipPath id="56390548b3"><path d="M 6.992188 250.71875 L 97.878906 253.535156 L 96.316406 303.898438 L 5.429688 301.082031 Z M 6.992188 250.71875 " clip-rule="nonzero"/></clipPath><clipPath id="637eb780e0"><path d="M 52.402344 252.128906 L 96.257812 303.894531 L 5.429688 301.082031 Z M 52.402344 252.128906 " clip-rule="nonzero"/></clipPath><clipPath id="07153c19c3"><path d="M 0.238281 0 L 91.441406 0 L 91.441406 52 L 0.238281 52 Z M 0.238281 0 " clip-rule="nonzero"/></clipPath><clipPath id="e030cecc37"><path d="M 1.992188 -1.28125 L 92.878906 1.535156 L 91.316406 51.898438 L 0.429688 49.082031 Z M 1.992188 -1.28125 " clip-rule="nonzero"/></clipPath><clipPath id="de9b2e602b"><path d="M 47.402344 0.128906 L 91.257812 51.894531 L 0.429688 49.082031 Z M 47.402344 0.128906 " clip-rule="nonzero"/></clipPath><clipPath id="7d7cf8bb4e"><rect x="0" width="92" y="0" height="52"/></clipPath><clipPath id="606fb49841"><path d="M 4.648438 282.757812 L 44.984375 282.757812 L 44.984375 372.324219 L 4.648438 372.324219 Z M 4.648438 282.757812 " clip-rule="nonzero"/></clipPath><clipPath id="f30e6f4a0e"><path d="M 0.648438 0.757812 L 40.984375 0.757812 L 40.984375 90.324219 L 0.648438 90.324219 Z M 0.648438 0.757812 " clip-rule="nonzero"/></clipPath><clipPath id="0fa52e5b03"><rect x="0" width="41" y="0" height="91"/></clipPath><clipPath id="932f9200a4"><path d="M 5 277 L 31 277 L 31 284 L 5 284 Z M 5 277 " clip-rule="nonzero"/></clipPath><clipPath id="ca5311a144"><path d="M 5.597656 277.308594 L 30.644531 278.085938 L 30.476562 283.523438 L 5.429688 282.746094 Z M 5.597656 277.308594 " clip-rule="nonzero"/></clipPath><clipPath id="909afb332e"><path d="M 18.117188 277.695312 L 30.46875 283.523438 L 5.429688 282.746094 Z M 18.117188 277.695312 " clip-rule="nonzero"/></clipPath><clipPath id="cb7964dea4"><path d="M 0.238281 0.640625 L 25.679688 0.640625 L 25.679688 6.640625 L 0.238281 6.640625 Z M 0.238281 0.640625 " clip-rule="nonzero"/></clipPath><clipPath id="9244748468"><path d="M 0.597656 0.308594 L 25.644531 1.085938 L 25.476562 6.523438 L 0.429688 5.746094 Z M 0.597656 0.308594 " clip-rule="nonzero"/></clipPath><clipPath id="64539e4bc5"><path d="M 13.117188 0.695312 L 25.46875 6.523438 L 0.429688 5.746094 Z M 13.117188 0.695312 " clip-rule="nonzero"/></clipPath><clipPath id="beff77b5bb"><rect x="0" width="26" y="0" height="7"/></clipPath><clipPath id="d39692af04"><rect x="0" width="316" y="0" height="441"/></clipPath><clipPath id="339e8ac3dd"><rect x="0" width="1098" y="0" height="558"/></clipPath></defs><g transform="matrix(1, 0, 0, 1, 1135, 421)"><g clip-path="url(#d39692af04)"><g clip-path="url(#40935a103a)"><g transform="matrix(1, 0, 0, 1, 185, 218)"><g clip-path="url(#7bd2b88686)"><g clip-path="url(#c9a59ef596)"><path fill="#f59e0b" d="M 0.722656 0.816406 L 79.3125 0.816406 L 79.3125 222.152344 L 0.722656 222.152344 Z M 0.722656 0.816406 " fill-opacity="1" fill-rule="nonzero"/></g></g></g></g><g clip-path="url(#bcf27aea78)"><g transform="matrix(1, 0, 0, 1, 5, 293)"><g clip-path="url(#6b3ada1737)"><g clip-path="url(#b97d52449e)"><path fill="#f59e0b" d="M 0.429688 79.324219 L 0.429688 0.734375 L 304.652344 0.734375 L 304.652344 79.324219 Z M 0.429688 79.324219 " fill-opacity="1" fill-rule="nonzero"/></g></g></g></g><g clip-path="url(#e16305871d)"><g clip-path="url(#81c24fd8c5)"><g transform="matrix(1, 0, 0, 1, 202, 165)"><g clip-path="url(#a7b13d4b00)"><g clip-path="url(#1085689509)"><g clip-path="url(#11f7384a2e)"><path fill="#f59e0b" d="M 0.320312 0.558594 L 62.257812 0.558594 L 62.257812 35.558594 L 0.320312 35.558594 Z M 0.320312 0.558594 " fill-opacity="1" fill-rule="nonzero"/></g></g></g></g></g></g><g clip-path="url(#973b71a2e8)"><g clip-path="url(#c524a31c14)"><g transform="matrix(1, 0, 0, 1, 185, 184)"><g clip-path="url(#4cfc70a74d)"><g clip-path="url(#3fb7162fc4)"><g clip-path="url(#2c91e9a87f)"><path fill="#f59e0b" d="M 0.722656 0.0546875 L 63.480469 0.0546875 L 63.480469 35.058594 L 0.722656 35.058594 Z M 0.722656 0.0546875 " fill-opacity="1" fill-rule="nonzero"/></g></g></g></g></g></g><g clip-path="url(#9809c484f8)"><g transform="matrix(1, 0, 0, 1, 217, 200)"><g clip-path="url(#432e2555ef)"><g clip-path="url(#986729d19d)"><path fill="#f59e0b" d="M 0.078125 0.316406 L 47.3125 0.316406 L 47.3125 221.714844 L 0.078125 221.714844 Z M 0.078125 0.316406 " fill-opacity="1" fill-rule="nonzero"/></g></g></g></g><g clip-path="url(#276a3fb854)"><g clip-path="url(#d22cb8a289)"><g transform="matrix(1, 0, 0, 1, 34, 86)"><g clip-path="url(#d9c1d1a4a9)"><g clip-path="url(#0d0b4985a7)"><g clip-path="url(#25059574f4)"><path fill="#f59e0b" d="M 57.75 212.324219 L 0.0664062 162.582031 L 139.960938 0.34375 L 197.644531 50.082031 Z M 57.75 212.324219 " fill-opacity="1" fill-rule="nonzero"/></g></g></g></g></g></g><g clip-path="url(#5d7879e708)"><g clip-path="url(#1b14364d57)"><g clip-path="url(#40f24ecc03)"><g transform="matrix(1, 0, 0, 1, 140, 53)"><g clip-path="url(#64c63ac805)"><g clip-path="url(#d951233d98)"><g clip-path="url(#a3e53824e7)"><g clip-path="url(#0ecc4c4fe2)"><path fill="#f59e0b" d="M 52.984375 -51.878906 L 175.253906 53.402344 L 122.40625 114.777344 L 0.136719 9.492188 Z M 52.984375 -51.878906 " fill-opacity="1" fill-rule="nonzero"/></g></g></g></g></g></g></g></g><g clip-path="url(#2092e06980)"><g clip-path="url(#13e20993db)"><g clip-path="url(#862fe9062d)"><g transform="matrix(1, 0, 0, 1, 4, 228)"><g clip-path="url(#c0665d7d74)"><g clip-path="url(#73252256eb)"><g clip-path="url(#b5c1404e9c)"><g clip-path="url(#136f860385)"><path fill="#f59e0b" d="M -3.03125 4.5 L 97.085938 -2.6875 L 100.695312 47.570312 L 0.574219 54.757812 Z M -3.03125 4.5 " fill-opacity="1" fill-rule="nonzero"/></g></g></g></g></g></g></g></g><g clip-path="url(#d66aecc053)"><g clip-path="url(#56390548b3)"><g clip-path="url(#637eb780e0)"><g transform="matrix(1, 0, 0, 1, 5, 252)"><g clip-path="url(#7d7cf8bb4e)"><g clip-path="url(#07153c19c3)"><g clip-path="url(#e030cecc37)"><g clip-path="url(#de9b2e602b)"><path fill="#f59e0b" d="M 1.992188 -1.28125 L 92.878906 1.535156 L 91.316406 51.898438 L 0.429688 49.082031 Z M 1.992188 -1.28125 " fill-opacity="1" fill-rule="nonzero"/></g></g></g></g></g></g></g></g><g clip-path="url(#606fb49841)"><g transform="matrix(1, 0, 0, 1, 4, 282)"><g clip-path="url(#0fa52e5b03)"><g clip-path="url(#f30e6f4a0e)"><path fill="#f59e0b" d="M 0.648438 90.324219 L 0.648438 0.820312 L 40.984375 0.820312 L 40.984375 90.324219 Z M 0.648438 90.324219 " fill-opacity="1" fill-rule="nonzero"/></g></g></g></g><g clip-path="url(#932f9200a4)"><g clip-path="url(#ca5311a144)"><g clip-path="url(#909afb332e)"><g transform="matrix(1, 0, 0, 1, 5, 277)"><g clip-path="url(#beff77b5bb)"><g clip-path="url(#cb7964dea4)"><g clip-path="url(#9244748468)"><g clip-path="url(#64539e4bc5)"><path fill="#f59e0b" d="M 0.597656 0.308594 L 25.644531 1.085938 L 25.476562 6.523438 L 0.429688 5.746094 Z M 0.597656 0.308594 " fill-opacity="1" fill-rule="nonzero"/></g></g></g></g></g></g></g></g></g></g><g transform="matrix(1, 0, 0, 1, 33, 419)"><g clip-path="url(#339e8ac3dd)"><g fill="#e8e8ed" fill-opacity="1"><g transform="translate(0.405488, 445.73334)"><g><path d="M 29.015625 0 L 29.015625 -335.140625 L 252.375 -335.140625 L 252.375 -277.5625 L 97.84375 -277.5625 L 97.84375 -186.46875 L 238.421875 -186.46875 L 238.421875 -130.234375 L 97.84375 -130.234375 L 97.84375 0 Z M 29.015625 0 "/></g></g></g><g fill="#e8e8ed" fill-opacity="1"><g transform="translate(247.779908, 445.73334)"><g><path d="M 139.6875 4.953125 C 114.644531 4.953125 92.9375 -0.40625 74.5625 -11.125 C 56.195312 -21.851562 42.023438 -36.851562 32.046875 -56.125 C 22.078125 -75.394531 17.09375 -97.773438 17.09375 -123.265625 C 17.09375 -149.054688 22.078125 -171.582031 32.046875 -190.84375 C 42.023438 -210.113281 56.195312 -225.109375 74.5625 -235.828125 C 92.9375 -246.554688 114.644531 -251.921875 139.6875 -251.921875 C 164.570312 -251.921875 186.195312 -246.554688 204.5625 -235.828125 C 222.9375 -225.109375 237.109375 -210.113281 247.078125 -190.84375 C 257.054688 -171.582031 262.046875 -149.054688 262.046875 -123.265625 C 262.046875 -97.773438 257.054688 -75.394531 247.078125 -56.125 C 237.109375 -36.851562 222.9375 -21.851562 204.5625 -11.125 C 186.195312 -0.40625 164.570312 4.953125 139.6875 4.953125 Z M 139.6875 -48.140625 C 151.375 -48.140625 161.226562 -51.363281 169.25 -57.8125 C 177.28125 -64.257812 183.394531 -73.140625 187.59375 -84.453125 C 191.789062 -95.773438 193.890625 -108.785156 193.890625 -123.484375 C 193.890625 -138.328125 191.789062 -151.375 187.59375 -162.625 C 183.394531 -173.875 177.28125 -182.722656 169.25 -189.171875 C 161.226562 -195.617188 151.375 -198.84375 139.6875 -198.84375 C 127.988281 -198.84375 118.085938 -195.617188 109.984375 -189.171875 C 101.890625 -182.722656 95.78125 -173.875 91.65625 -162.625 C 87.53125 -151.375 85.46875 -138.328125 85.46875 -123.484375 C 85.46875 -108.785156 87.53125 -95.773438 91.65625 -84.453125 C 95.78125 -73.140625 101.851562 -64.257812 109.875 -57.8125 C 117.894531 -51.363281 127.832031 -48.140625 139.6875 -48.140625 Z M 139.6875 -48.140625 "/></g></g></g><g fill="#e8e8ed" fill-opacity="1"><g transform="translate(515.397737, 445.73334)"><g><path d="M 27.671875 0 L 27.671875 -248.328125 L 92.671875 -248.328125 L 92.671875 -205.359375 L 94.921875 -205.359375 C 99.421875 -220.503906 106.914062 -231.9375 117.40625 -239.65625 C 127.90625 -247.382812 140.351562 -251.25 154.75 -251.25 C 158.351562 -251.25 162.101562 -251.097656 166 -250.796875 C 169.894531 -250.492188 173.269531 -250.046875 176.125 -249.453125 L 176.125 -190.0625 C 173.269531 -190.96875 169.03125 -191.679688 163.40625 -192.203125 C 157.789062 -192.722656 152.359375 -192.984375 147.109375 -192.984375 C 137.210938 -192.984375 128.25 -190.804688 120.21875 -186.453125 C 112.195312 -182.109375 105.9375 -175.960938 101.4375 -168.015625 C 96.945312 -160.066406 94.703125 -150.695312 94.703125 -139.90625 L 94.703125 0 Z M 27.671875 0 "/></g></g></g><g fill="#e8e8ed" fill-opacity="1"><g transform="translate(691.470302, 445.73334)"><g><path d="M 27.671875 0 L 27.671875 -248.328125 L 90.421875 -248.328125 L 93.125 -187.8125 L 88.390625 -187.8125 C 92.296875 -202.8125 98.035156 -215.070312 105.609375 -224.59375 C 113.179688 -234.113281 122.0625 -241.125 132.25 -245.625 C 142.445312 -250.125 153.171875 -252.375 164.421875 -252.375 C 182.421875 -252.375 197.226562 -246.75 208.84375 -235.5 C 220.46875 -224.25 228.679688 -207.304688 233.484375 -184.671875 L 225.828125 -184.671875 C 229.273438 -199.960938 235.160156 -212.59375 243.484375 -222.5625 C 251.804688 -232.539062 261.703125 -240.003906 273.171875 -244.953125 C 284.648438 -249.898438 296.835938 -252.375 309.734375 -252.375 C 325.023438 -252.375 338.707031 -249.035156 350.78125 -242.359375 C 362.851562 -235.691406 372.375 -226.019531 379.34375 -213.34375 C 386.3125 -200.675781 389.796875 -185.191406 389.796875 -166.890625 L 389.796875 0 L 322.546875 0 L 322.546875 -154.078125 C 322.546875 -168.316406 318.722656 -178.921875 311.078125 -185.890625 C 303.429688 -192.867188 293.984375 -196.359375 282.734375 -196.359375 C 274.191406 -196.359375 266.804688 -194.519531 260.578125 -190.84375 C 254.359375 -187.175781 249.5625 -182.039062 246.1875 -175.4375 C 242.8125 -168.84375 241.125 -161.046875 241.125 -152.046875 L 241.125 0 L 176.125 0 L 176.125 -156.09375 C 176.125 -168.394531 172.484375 -178.179688 165.203125 -185.453125 C 157.929688 -192.722656 148.523438 -196.359375 136.984375 -196.359375 C 129.035156 -196.359375 121.875 -194.554688 115.5 -190.953125 C 109.125 -187.359375 104.0625 -182.078125 100.3125 -175.109375 C 96.570312 -168.140625 94.703125 -159.554688 94.703125 -149.359375 L 94.703125 0 Z M 27.671875 0 "/></g></g></g></g></g><g fill="#efeff8" fill-opacity="1"><g transform="translate(345.587288, 1028.286155)"><g><path d="M 49.8125 1.609375 C 40.914062 1.609375 33.222656 0.242188 26.734375 -2.484375 C 20.242188 -5.222656 15.203125 -9.265625 11.609375 -14.609375 C 8.015625 -19.953125 6.144531 -26.507812 6 -34.28125 L 27.765625 -34.28125 C 27.953125 -30.570312 29 -27.429688 30.90625 -24.859375 C 32.8125 -22.296875 35.375 -20.367188 38.59375 -19.078125 C 41.820312 -17.785156 45.507812 -17.140625 49.65625 -17.140625 C 53.664062 -17.140625 57.171875 -17.722656 60.171875 -18.890625 C 63.171875 -20.066406 65.5 -21.703125 67.15625 -23.796875 C 68.820312 -25.898438 69.65625 -28.320312 69.65625 -31.0625 C 69.65625 -33.550781 68.929688 -35.648438 67.484375 -37.359375 C 66.046875 -39.066406 63.921875 -40.53125 61.109375 -41.75 C 58.304688 -42.96875 54.832031 -44.039062 50.6875 -44.96875 L 38.8125 -47.90625 C 29.25 -50.144531 21.84375 -53.691406 16.59375 -58.546875 C 11.34375 -63.410156 8.71875 -69.796875 8.71875 -77.703125 C 8.71875 -84.296875 10.488281 -90.054688 14.03125 -94.984375 C 17.570312 -99.921875 22.425781 -103.769531 28.59375 -106.53125 C 34.769531 -109.289062 41.863281 -110.671875 49.875 -110.671875 C 57.976562 -110.671875 65.046875 -109.273438 71.078125 -106.484375 C 77.109375 -103.703125 81.804688 -99.820312 85.171875 -94.84375 C 88.546875 -89.863281 90.304688 -84.078125 90.453125 -77.484375 L 68.921875 -77.484375 C 68.523438 -82.023438 66.628906 -85.566406 63.234375 -88.109375 C 59.847656 -90.648438 55.347656 -91.921875 49.734375 -91.921875 C 45.972656 -91.921875 42.722656 -91.367188 39.984375 -90.265625 C 37.253906 -89.171875 35.164062 -87.660156 33.71875 -85.734375 C 32.28125 -83.804688 31.5625 -81.597656 31.5625 -79.109375 C 31.5625 -76.515625 32.332031 -74.347656 33.875 -72.609375 C 35.414062 -70.878906 37.539062 -69.441406 40.25 -68.296875 C 42.957031 -67.148438 45.992188 -66.1875 49.359375 -65.40625 L 59.328125 -62.984375 C 64.160156 -61.910156 68.585938 -60.484375 72.609375 -58.703125 C 76.640625 -56.921875 80.117188 -54.757812 83.046875 -52.21875 C 85.984375 -49.675781 88.234375 -46.671875 89.796875 -43.203125 C 91.359375 -39.742188 92.140625 -35.789062 92.140625 -31.34375 C 92.140625 -24.65625 90.453125 -18.832031 87.078125 -13.875 C 83.710938 -8.925781 78.878906 -5.109375 72.578125 -2.421875 C 66.285156 0.265625 58.695312 1.609375 49.8125 1.609375 Z M 49.8125 1.609375 "/></g></g></g><g fill="#efeff8" fill-opacity="1"><g transform="translate(437.711304, 1028.286155)"><g><path d="M 2.9375 0 L 40.5 -109.125 L 69.65625 -109.125 L 107.953125 0 L 83.0625 0 L 65.625 -52.734375 C 63.519531 -59.566406 61.378906 -66.953125 59.203125 -74.890625 C 57.035156 -82.828125 54.734375 -91.554688 52.296875 -101.078125 L 57.421875 -101.078125 C 55.023438 -91.554688 52.800781 -82.800781 50.75 -74.8125 C 48.707031 -66.832031 46.660156 -59.472656 44.609375 -52.734375 L 27.546875 0 Z M 26.4375 -24.96875 L 26.4375 -42.625 L 84.453125 -42.625 L 84.453125 -24.96875 Z M 26.4375 -24.96875 "/></g></g></g><g fill="#efeff8" fill-opacity="1"><g transform="translate(544.849967, 1028.286155)"><g><path d="M 9.453125 0 L 9.453125 -109.125 L 34.125 -109.125 L 68.78125 -53.765625 C 70.34375 -51.171875 72.015625 -48.273438 73.796875 -45.078125 C 75.578125 -41.878906 77.40625 -38.328125 79.28125 -34.421875 C 81.164062 -30.515625 83.035156 -26.269531 84.890625 -21.6875 L 82.46875 -20.359375 C 82.175781 -24.265625 81.90625 -28.472656 81.65625 -32.984375 C 81.414062 -37.503906 81.222656 -41.835938 81.078125 -45.984375 C 80.929688 -50.140625 80.859375 -53.609375 80.859375 -56.390625 L 80.859375 -109.125 L 103.640625 -109.125 L 103.640625 0 L 78.875 0 L 47.46875 -50.171875 C 45.363281 -53.585938 43.320312 -57.039062 41.34375 -60.53125 C 39.363281 -64.019531 37.285156 -67.910156 35.109375 -72.203125 C 32.941406 -76.503906 30.421875 -81.515625 27.546875 -87.234375 L 30.609375 -87.8125 C 30.910156 -82.488281 31.191406 -77.421875 31.453125 -72.609375 C 31.722656 -67.804688 31.929688 -63.472656 32.078125 -59.609375 C 32.222656 -55.753906 32.296875 -52.632812 32.296875 -50.25 L 32.296875 0 Z M 9.453125 0 "/></g></g></g><g fill="#efeff8" fill-opacity="1"><g transform="translate(654.185895, 1028.286155)"><g><path d="M 47.90625 0 L 19.625 0 L 19.625 -19.1875 L 46.796875 -19.1875 C 53.878906 -19.1875 59.800781 -20.457031 64.5625 -23 C 69.320312 -25.539062 72.894531 -29.429688 75.28125 -34.671875 C 77.675781 -39.921875 78.875 -46.578125 78.875 -54.640625 C 78.875 -62.648438 77.675781 -69.265625 75.28125 -74.484375 C 72.894531 -79.710938 69.332031 -83.59375 64.59375 -86.125 C 59.863281 -88.664062 53.984375 -89.9375 46.953125 -89.9375 L 19.109375 -89.9375 L 19.109375 -109.125 L 48.265625 -109.125 C 59.253906 -109.125 68.691406 -106.9375 76.578125 -102.5625 C 84.460938 -98.195312 90.539062 -91.9375 94.8125 -83.78125 C 99.082031 -75.632812 101.21875 -65.921875 101.21875 -54.640625 C 101.21875 -43.304688 99.09375 -33.5625 94.84375 -25.40625 C 90.601562 -17.257812 84.488281 -10.988281 76.5 -6.59375 C 68.519531 -2.195312 58.988281 0 47.90625 0 Z M 31.859375 -109.125 L 31.859375 0 L 9.453125 0 L 9.453125 -109.125 Z M 31.859375 -109.125 "/></g></g></g><g fill="#efeff8" fill-opacity="1"><g transform="translate(758.028659, 1028.286155)"><g><path d="M 9.453125 0 L 9.453125 -109.125 L 52.875 -109.125 C 60.832031 -109.125 67.5 -107.925781 72.875 -105.53125 C 78.25 -103.144531 82.289062 -99.835938 85 -95.609375 C 87.707031 -91.390625 89.0625 -86.546875 89.0625 -81.078125 C 89.0625 -76.828125 88.21875 -73.09375 86.53125 -69.875 C 84.851562 -66.65625 82.535156 -64.019531 79.578125 -61.96875 C 76.617188 -59.914062 73.238281 -58.445312 69.4375 -57.5625 L 69.4375 -56.609375 C 73.632812 -56.421875 77.539062 -55.238281 81.15625 -53.0625 C 84.769531 -50.894531 87.6875 -47.878906 89.90625 -44.015625 C 92.125 -40.160156 93.234375 -35.570312 93.234375 -30.25 C 93.234375 -24.4375 91.816406 -19.25 88.984375 -14.6875 C 86.148438 -10.125 81.9375 -6.535156 76.34375 -3.921875 C 70.757812 -1.304688 63.84375 0 55.59375 0 Z M 31.78125 -18.234375 L 51.484375 -18.234375 C 57.878906 -18.234375 62.601562 -19.488281 65.65625 -22 C 68.707031 -24.519531 70.234375 -27.90625 70.234375 -32.15625 C 70.234375 -35.226562 69.5 -37.9375 68.03125 -40.28125 C 66.570312 -42.625 64.472656 -44.453125 61.734375 -45.765625 C 59.003906 -47.085938 55.757812 -47.75 52 -47.75 L 31.78125 -47.75 Z M 31.78125 -63.421875 L 49.953125 -63.421875 C 53.171875 -63.421875 56.023438 -63.984375 58.515625 -65.109375 C 61.003906 -66.234375 62.957031 -67.859375 64.375 -69.984375 C 65.789062 -72.109375 66.5 -74.609375 66.5 -77.484375 C 66.5 -81.535156 65.082031 -84.804688 62.25 -87.296875 C 59.425781 -89.796875 55.425781 -91.046875 50.25 -91.046875 L 31.78125 -91.046875 Z M 31.78125 -63.421875 "/></g></g></g><g fill="#efeff8" fill-opacity="1"><g transform="translate(852.935878, 1028.286155)"><g><path d="M 57.421875 1.53125 C 47.753906 1.53125 39.0625 -0.6875 31.34375 -5.125 C 23.632812 -9.570312 17.546875 -15.96875 13.078125 -24.3125 C 8.609375 -32.664062 6.375 -42.726562 6.375 -54.5 C 6.375 -66.3125 8.609375 -76.40625 13.078125 -84.78125 C 17.546875 -93.15625 23.632812 -99.5625 31.34375 -104 C 39.0625 -108.445312 47.753906 -110.671875 57.421875 -110.671875 C 67.085938 -110.671875 75.765625 -108.445312 83.453125 -104 C 91.148438 -99.5625 97.234375 -93.15625 101.703125 -84.78125 C 106.171875 -76.40625 108.40625 -66.3125 108.40625 -54.5 C 108.40625 -42.726562 106.171875 -32.65625 101.703125 -24.28125 C 97.234375 -15.90625 91.148438 -9.507812 83.453125 -5.09375 C 75.765625 -0.675781 67.085938 1.53125 57.421875 1.53125 Z M 57.421875 -18.3125 C 63.085938 -18.3125 68.039062 -19.703125 72.28125 -22.484375 C 76.53125 -25.265625 79.835938 -29.351562 82.203125 -34.75 C 84.578125 -40.144531 85.765625 -46.726562 85.765625 -54.5 C 85.765625 -62.3125 84.578125 -68.925781 82.203125 -74.34375 C 79.835938 -79.757812 76.53125 -83.859375 72.28125 -86.640625 C 68.039062 -89.429688 63.085938 -90.828125 57.421875 -90.828125 C 51.804688 -90.828125 46.863281 -89.421875 42.59375 -86.609375 C 38.320312 -83.796875 35 -79.691406 32.625 -74.296875 C 30.257812 -68.910156 29.078125 -62.3125 29.078125 -54.5 C 29.078125 -46.726562 30.257812 -40.15625 32.625 -34.78125 C 35 -29.414062 38.320312 -25.328125 42.59375 -22.515625 C 46.863281 -19.710938 51.804688 -18.3125 57.421875 -18.3125 Z M 57.421875 -18.3125 "/></g></g></g><g fill="#efeff8" fill-opacity="1"><g transform="translate(955.68001, 1028.286155)"><g><path d="M 3.078125 0 L 48.125 -64.09375 L 48.125 -47.171875 L 6.59375 -109.125 L 32.453125 -109.125 L 44.453125 -90.75 C 46.503906 -87.570312 48.257812 -84.628906 49.71875 -81.921875 C 51.1875 -79.210938 52.546875 -76.597656 53.796875 -74.078125 C 55.046875 -71.566406 56.398438 -68.96875 57.859375 -66.28125 L 51.921875 -66.28125 C 53.441406 -68.96875 54.835938 -71.566406 56.109375 -74.078125 C 57.378906 -76.597656 58.753906 -79.210938 60.234375 -81.921875 C 61.722656 -84.628906 63.519531 -87.570312 65.625 -90.75 L 77.78125 -109.125 L 103.046875 -109.125 L 62.25 -48.34375 L 62.25 -64.453125 L 106.28125 0 L 79.90625 0 L 64.671875 -22.921875 C 62.816406 -25.753906 61.253906 -28.234375 59.984375 -30.359375 C 58.710938 -32.484375 57.550781 -34.507812 56.5 -36.4375 C 55.457031 -38.363281 54.273438 -40.5 52.953125 -42.84375 L 56.46875 -42.84375 C 55.15625 -40.550781 53.957031 -38.425781 52.875 -36.46875 C 51.800781 -34.519531 50.628906 -32.484375 49.359375 -30.359375 C 48.097656 -28.234375 46.488281 -25.753906 44.53125 -22.921875 L 28.859375 0 Z M 3.078125 0 "/></g></g></g></svg>